<?xml version="1.0" encoding="UTF-8"?>
<!--Generator: Apple Native CoreSVG 326-->
<!DOCTYPE svg
PUBLIC "-//W3C//DTD SVG 1.1//EN"
       "http://www.w3.org/Graphics/SVG/1.1/DTD/svg11.dtd">
<svg version="1.1" xmlns="http://www.w3.org/2000/svg" xmlns:xlink="http://www.w3.org/1999/xlink" viewBox="0 0 26.4209 26.0082">
 <g>
  <rect height="26.0082" opacity="0" width="26.4209" x="0" y="0"/>
  <path d="M16.8734 5.71016L6.92822 5.71016C5.94385 5.71016 5.39697 6.24336 5.39697 7.28242L5.39697 19.423C5.39697 20.4621 5.94385 20.9953 6.92822 20.9953L19.1372 20.9953C20.1216 20.9953 20.6685 20.4621 20.6685 19.423L20.6685 9.5908L22.6509 7.60382L22.6509 19.5324C22.6509 21.8293 21.4751 22.9641 19.1646 22.9641L6.90088 22.9641C4.59033 22.9641 3.41455 21.8293 3.41455 19.5324L3.41455 7.17305C3.41455 4.87617 4.59033 3.74141 6.90088 3.74141L18.8399 3.74141Z" fill="white" fill-opacity="0.85"/>
  <path d="M10.6333 16.1145L12.8755 15.1574L22.8833 5.14961L21.27 3.57734L11.2759 13.5715L10.2642 15.7316C10.1685 15.9367 10.4009 16.2102 10.6333 16.1145ZM23.7173 4.31562L24.5376 3.48164C24.9067 3.08516 24.9067 2.51094 24.5376 2.1418L24.2368 1.84102C23.8813 1.48555 23.3071 1.52656 22.9517 1.8957L22.1177 2.71602Z" fill="white" fill-opacity="0.85"/>
 </g>
</svg>
