<?xml version="1.0" encoding="UTF-8"?>
<!--Generator: Apple Native CoreSVG 326-->
<!DOCTYPE svg
PUBLIC "-//W3C//DTD SVG 1.1//EN"
       "http://www.w3.org/Graphics/SVG/1.1/DTD/svg11.dtd">
<svg version="1.1" xmlns="http://www.w3.org/2000/svg" xmlns:xlink="http://www.w3.org/1999/xlink" viewBox="0 0 26.4688 22.791">
 <g>
  <rect height="22.791" opacity="0" width="26.4688" x="0" y="0"/>
  <path d="M9.92578 21.4922L16.1875 21.4922L16.1875 14.6152C16.1875 14.0957 15.8594 13.7539 15.3262 13.7539L10.7871 13.7539C10.2676 13.7539 9.92578 14.0957 9.92578 14.6152ZM1.06641 11.7988C1.4082 11.7988 1.69531 11.6074 1.94141 11.4023L12.7012 2.36523C12.8105 2.26953 12.9473 2.22852 13.0566 2.22852C13.166 2.22852 13.2891 2.26953 13.3984 2.36523L24.1719 11.4023C24.418 11.6074 24.7051 11.7988 25.0469 11.7988C25.7168 11.7988 26.1133 11.3203 26.1133 10.8145C26.1133 10.541 25.9902 10.2402 25.7305 10.0215L14.4238 0.533203C13.9863 0.177734 13.5215 0 13.0566 0C12.5918 0 12.1133 0.177734 11.6895 0.533203L0.382812 10.0215C0.123047 10.2402 0 10.541 0 10.8145C0 11.3203 0.396484 11.7988 1.06641 11.7988ZM19.9062 5.63281L22.8594 8.12109L22.8594 3.17188C22.8594 2.65234 22.5176 2.32422 21.998 2.32422L20.7676 2.32422C20.2617 2.32422 19.9062 2.65234 19.9062 3.17188ZM5.7832 22.7773L20.3164 22.7773C21.916 22.7773 22.8594 21.8613 22.8594 20.3027L22.8594 8.4082L20.877 7.0957L20.877 19.7969C20.877 20.4395 20.5215 20.8086 19.9062 20.8086L6.20703 20.8086C5.5918 20.8086 5.22266 20.4395 5.22266 19.7969L5.22266 7.0957L3.25391 8.4082L3.25391 20.3027C3.25391 21.8613 4.19727 22.7773 5.7832 22.7773Z" fill="white" fill-opacity="0.85"/>
 </g>
</svg>
