<?xml version="1.0" encoding="UTF-8"?>
<!--Generator: Apple Native CoreSVG 326-->
<!DOCTYPE svg
PUBLIC "-//W3C//DTD SVG 1.1//EN"
       "http://www.w3.org/Graphics/SVG/1.1/DTD/svg11.dtd">
<svg version="1.1" xmlns="http://www.w3.org/2000/svg" xmlns:xlink="http://www.w3.org/1999/xlink" viewBox="0 0 18.5664 30.1738">
 <g>
  <rect height="30.1738" opacity="0" width="18.5664" x="0" y="0"/>
  <path d="M3.36328 4.75781L3.36328 5.90625C3.36328 6.09307 3.37956 6.27276 3.41133 6.44383C2.45718 6.48719 1.96875 7.02857 1.96875 7.9707L1.96875 23.9941C1.96875 24.9785 2.50195 25.5391 3.54102 25.5391L14.6699 25.5391C15.6953 25.5391 16.2285 24.9785 16.2285 23.9941L16.2285 7.9707C16.2285 7.02891 15.7404 6.48758 14.799 6.44387C14.8312 6.27279 14.8477 6.09309 14.8477 5.90625L14.8477 4.75781C14.8477 4.65589 14.8427 4.55609 14.832 4.4592C17.0852 4.48025 18.2109 5.64225 18.2109 7.94336L18.2109 24.0215C18.2109 26.3594 17.0625 27.5078 14.7656 27.5078L3.43164 27.5078C1.13477 27.5078 0 26.3594 0 24.0215L0 7.94336C0 5.63754 1.11687 4.47551 3.3788 4.45876C3.36814 4.55579 3.36328 4.65573 3.36328 4.75781Z" fill="white" fill-opacity="0.85"/>
  <path d="M5.76953 7.05469L12.4277 7.05469C13.0977 7.05469 13.5078 6.63086 13.5078 5.90625L13.5078 4.75781C13.5078 4.0332 13.0977 3.60938 12.4277 3.60938L11.5391 3.60938C11.457 2.35156 10.4043 1.33984 9.10547 1.33984C7.80664 1.33984 6.75391 2.35156 6.6582 3.60938L5.76953 3.60938C5.09961 3.60938 4.70312 4.0332 4.70312 4.75781L4.70312 5.90625C4.70312 6.63086 5.09961 7.05469 5.76953 7.05469ZM9.10547 4.63477C8.59961 4.63477 8.17578 4.21094 8.17578 3.70508C8.17578 3.19922 8.59961 2.78906 9.10547 2.78906C9.61133 2.78906 10.0215 3.19922 10.0215 3.70508C10.0215 4.21094 9.61133 4.63477 9.10547 4.63477Z" fill="white" fill-opacity="0.85"/>
  <path d="M4.45703 20.7539L8.98242 20.7539C9.39258 20.7539 9.73438 20.4121 9.73438 20.002C9.73438 19.5918 9.40625 19.2637 8.98242 19.2637L4.45703 19.2637C4.0332 19.2637 3.70508 19.5918 3.70508 20.002C3.70508 20.4121 4.04688 20.7539 4.45703 20.7539Z" fill="white" fill-opacity="0.85"/>
  <path d="M4.45703 16.7891L13.7539 16.7891C14.1777 16.7891 14.5059 16.4609 14.5059 16.0371C14.5059 15.627 14.1777 15.2988 13.7539 15.2988L4.45703 15.2988C4.0332 15.2988 3.70508 15.627 3.70508 16.0371C3.70508 16.4609 4.0332 16.7891 4.45703 16.7891Z" fill="white" fill-opacity="0.85"/>
  <path d="M4.45703 13.0293L13.7539 13.0293C14.1641 13.0293 14.5059 12.6875 14.5059 12.2773C14.5059 11.8672 14.1641 11.5254 13.7539 11.5254L4.45703 11.5254C4.04688 11.5254 3.70508 11.8672 3.70508 12.2773C3.70508 12.6875 4.04688 13.0293 4.45703 13.0293Z" fill="white" fill-opacity="0.85"/>
 </g>
</svg>
